<svg width="48" height="48" viewBox="0 0 48 48" fill="none" xmlns="http://www.w3.org/2000/svg">
<path d="M35.8876 25.6072C35.9585 25.0796 36.0073 24.5471 36.0073 24C36.0073 23.4724 35.9609 22.9571 35.895 22.449L33.4427 21.6064C33.2131 20.6977 32.8589 19.8429 32.3924 19.0564L33.5306 16.7238C32.8907 15.886 32.1457 15.1386 31.3104 14.4938L28.9827 15.6296C28.1913 15.1582 27.3316 14.7967 26.4156 14.5646L25.5754 12.1148C25.06 12.0464 24.5398 12 24.0049 12C23.4724 12 22.9497 12.0464 22.4344 12.1148L21.5917 14.5671C20.6782 14.8015 19.816 15.1606 19.0246 15.632L16.6969 14.4962C15.8616 15.1386 15.1166 15.8885 14.4767 16.7262L15.6149 19.0588C15.1508 19.8453 14.7967 20.7002 14.5646 21.6088L12.1124 22.4515C12.0464 22.9619 12 23.4773 12 24.0024C12 24.5496 12.0488 25.082 12.1197 25.6096L14.5817 26.4523C14.8138 27.3487 15.1679 28.1913 15.6296 28.968L14.4914 31.2982C15.1386 32.1409 15.8933 32.8931 16.7384 33.538L19.071 32.3973C19.8429 32.8516 20.6806 33.2009 21.5697 33.428L22.4148 35.8828C22.9351 35.9512 23.4626 36 24.0049 36C24.5447 36 25.0723 35.9512 25.595 35.8828L26.4401 33.428C27.3291 33.1985 28.1669 32.8516 28.9387 32.3973L31.2713 33.538C32.1164 32.8931 32.8712 32.1409 33.5184 31.2982L32.3802 28.968C32.8419 28.1913 33.196 27.3487 33.428 26.4523L35.8876 25.6072ZM24.0049 29.7155C20.8492 29.7155 18.2919 27.1582 18.2919 24.0024C18.2919 20.8467 20.8492 18.2894 24.0049 18.2894C27.1606 18.2894 29.7179 20.8467 29.7179 24.0024C29.7179 27.1557 27.1606 29.7155 24.0049 29.7155Z" fill="#0561FC"/>
</svg>
